# xmcd CD database file generated by Grip 3.3.0
# 
# Track frame offsets:
#       225
#       14447
#       28700
#       41815
#       57390
#       73322
#       108260
#       126085
#       142570
#       167395
#       193847
#       217077
#       237735
#       252475
#       270977
#       288330
#       306172
# 
# Disc length: 4330 seconds
# 
# Revision: 3
# Processed by: cddbd v1.5.2PL0 Copyright (c) Steve Scherf et al.
# Submitted via: Grip 3.3.0
# 
DISCID=0210e711
DTITLE=Prism - Over 60 Minutes With... Prism
DYEAR=1988
DGENRE=Classic Rock
TTITLE0=Good To Be Back
TTITLE1=Don't Let Him Know
TTITLE2=Cover Girl
TTITLE3=Young And Restless
TTITLE4=American Music
TTITLE5=Armageddon
TTITLE6=Virginia
TTITLE7=You Walked Away Again
TTITLE8=Mirror Man
TTITLE9=Night To Remember
TTITLE10=See Forever Eyes
TTITLE11=Flying
TTITLE12=Take Me Away
TTITLE13=It's Over
TTITLE14=Open Soul Surgery
TTITLE15=Take Me To The Kaptin
TTITLE16=Spaceship Superstar
EXTD=
EXTT0=
EXTT1=
EXTT2=
EXTT3=
EXTT4=
EXTT5=
EXTT6=
EXTT7=
EXTT8=
EXTT9=
EXTT10=
EXTT11=
EXTT12=
EXTT13=
EXTT14=
EXTT15=
EXTT16=
PLAYORDER=
